<?xml version="1.0" encoding="utf-8"?>
<!-- Generator: Adobe Illustrator 27.3.1, SVG Export Plug-In . SVG Version: 6.00 Build 0)  -->
<svg version="1.1" xmlns="http://www.w3.org/2000/svg" xmlns:xlink="http://www.w3.org/1999/xlink" x="0px" y="0px"
	 viewBox="0 0 1920 1080" style="enable-background:new 0 0 1920 1080;" xml:space="preserve">
<style type="text/css">
	.st0{fill:#92DFD5;}
	.st1{display:none;}
	.st2{fill:#FFDFB9;}
</style>
<g id="Layer_2">
	<rect x="1031.3" y="-81.8" class="st0" width="842.4" height="649.9"/>
</g>
<g id="Layer_1">
	<g id="Layer_1_00000128480453607842630030000014629168577492155033_" class="st1">
		
			<image style="display:inline;overflow:visible;enable-background:new    ;" width="1920" height="1280" xlink:href="66EFDB0834C791E4.jpeg"  transform="matrix(1 0 0 1 0 -64)">
		</image>
	</g>
	<g id="Layer_2_00000116216547613637387920000014475230358006326957_">
		<path class="st2" d="M1920,407c-41.7-29.3-77-50.6-102-65c-29.8-17.1-45.8-24.6-72-44c-18.9-14-32.6-26.3-60-51
			c-41.4-37.3-40.4-39.8-62-56c0,0-25.7-19.2-75-38c-3.2-1.2-8.2-3.1-15-3c-6.3,0.1-18.3,1.8-39,21c-10.1,9.3-15.1,14-23,26
			c-23.9,36.2-103.5,91.2-119,102c-128.8,89.5-150.5,128-302,223c-45.2,28.3-155.6,95.3-308,162c-28.2,12.3-151.6,65.7-320,114
			c-59.6,17.1-117.4,33.5-197,47c-91.3,15.5-169.1,20-226,21v214h1920V407z"/>
	</g>
</g>
</svg>
